<?xml version="1.0" encoding="UTF-8"?><svg id="Calque_1" xmlns="http://www.w3.org/2000/svg" viewBox="0 0 200 200"><g><path d="m96.5,71.99l30.51,30.51-30.51,30.51-30.51-30.51,30.51-30.51m0-5.66l-2.83,2.83-30.51,30.51-2.83,2.83,2.83,2.83,30.51,30.51,2.83,2.83,2.83-2.83,30.51-30.51,2.83-2.83-2.83-2.83-30.51-30.51-2.83-2.83h0Z"/><path d="m96.5,98c2.49,0,4.5,2.01,4.5,4.5s-2.01,4.5-4.5,4.5-4.5-2.01-4.5-4.5,2.01-4.5,4.5-4.5m0-4c-4.69,0-8.5,3.81-8.5,8.5s3.81,8.5,8.5,8.5,8.5-3.81,8.5-8.5-3.81-8.5-8.5-8.5h0Z"/></g><g><path d="m94,56l1.31,1.31-37.67,37.67-1.31-1.31,37.67-37.67m0-2.83l-1.41,1.41-37.67,37.67-1.41,1.41,1.41,1.41,1.31,1.31,1.41,1.41,1.41-1.41,37.67-37.67,1.41-1.41-1.41-1.41-1.31-1.31-1.41-1.41h0Z"/><path d="m100.5,36.5l1.31,1.31-30.17,30.17-1.31-1.31,30.17-30.17m0-2.53l-1.27,1.27-30.17,30.17-1.27,1.27,1.27,1.27,1.31,1.31,1.27,1.27,1.27-1.27,30.17-30.17,1.27-1.27-1.27-1.27-1.31-1.31-1.27-1.27h0Z"/><path d="m89,35l1.31,1.31-30.5,30.5-1.31-1.31,30.5-30.5m0-2.55l-1.27,1.27-30.5,30.5-1.27,1.27,1.27,1.27,1.31,1.31,1.27,1.27,1.27-1.27,30.5-30.5,1.27-1.27-1.27-1.27-1.31-1.31-1.27-1.27h0Z"/><path d="m97,14l1.31,1.31-37.67,37.67-1.31-1.31L97,14m0-2.83l-1.41,1.41-37.67,37.67-1.41,1.41,1.41,1.41,1.31,1.31,1.41,1.41,1.41-1.41,37.67-37.67,1.41-1.41-1.41-1.41-1.31-1.31-1.41-1.41h0Z"/><path d="m137,147l1.31,1.31-37.67,37.67-1.31-1.31,37.67-37.67m0-2.83l-1.41,1.41-37.67,37.67-1.41,1.41,1.41,1.41,1.31,1.31,1.41,1.41,1.41-1.41,37.67-37.67,1.41-1.41-1.41-1.41-1.31-1.31-1.41-1.41h0Z"/><path d="m143.5,127.5l1.31,1.31-30.17,30.17-1.31-1.31,30.17-30.17m0-2.53l-1.27,1.27-30.17,30.17-1.27,1.27,1.27,1.27,1.31,1.31,1.27,1.27,1.27-1.27,30.17-30.17,1.27-1.27-1.27-1.27-1.31-1.31-1.27-1.27h0Z"/><path d="m132,126l1.31,1.31-30.5,30.5-1.31-1.31,30.5-30.5m0-2.55l-1.27,1.27-30.5,30.5-1.27,1.27,1.27,1.27,1.31,1.31,1.27,1.27,1.27-1.27,30.5-30.5,1.27-1.27-1.27-1.27-1.31-1.31-1.27-1.27h0Z"/><path d="m140,105l1.31,1.31-37.67,37.67-1.31-1.31,37.67-37.67m0-2.83l-1.41,1.41-37.67,37.67-1.41,1.41,1.41,1.41,1.31,1.31,1.41,1.41,1.41-1.41,37.67-37.67,1.41-1.41-1.41-1.41-1.31-1.31-1.41-1.41h0Z"/></g><g><path d="m92,195c-.93,0-1.77-.66-1.96-1.61-2.98-14.9-9.99-23.51-16.45-29.98-3.43-3.43-8.08-6.83-13.01-10.44-9.35-6.84-19.95-14.59-27.26-25.89-11.34-17.52,1.2-70.32,1.73-72.56.26-1.07,1.34-1.74,2.41-1.48,1.07.26,1.73,1.34,1.48,2.41-.13.53-12.67,53.36-2.27,69.45,6.91,10.68,17.19,18.2,26.26,24.84,5.05,3.7,9.83,7.19,13.47,10.84,6.89,6.89,14.36,16.08,17.55,32.02.22,1.08-.49,2.14-1.57,2.35-.13.03-.26.04-.39.04Z"/><path d="m160.58,147c-.16,0-.31-.02-.47-.06-1.07-.26-1.74-1.34-1.48-2.41.13-.53,12.67-53.36,2.27-69.45-6.91-10.68-17.19-18.2-26.26-24.83-5.05-3.7-9.83-7.19-13.47-10.84-6.89-6.89-14.36-16.08-17.55-32.02-.22-1.08.49-2.14,1.57-2.35,1.09-.22,2.14.49,2.35,1.57,2.98,14.9,9.99,23.51,16.45,29.98,3.43,3.43,8.08,6.83,13.01,10.44,9.35,6.84,19.95,14.6,27.26,25.89,11.34,17.52-1.2,70.32-1.73,72.55-.22.92-1.04,1.53-1.94,1.53Z"/></g></svg>